<mxfile modified="2022-07-21T16:30:15.491Z" host="app.diagrams.net" agent="5.0 (Windows)" etag="b-oaiQjqtJBBhC2V4_3P" version="20.1.1" type="github">
  <diagram id="Ht1M8jgEwFfnCIfOTk4-" name="Page-1">
    <mxGraphModel dx="1022" dy="392" grid="1" gridSize="10" guides="1" tooltips="1" connect="1" arrows="1" fold="1" page="1" pageScale="1" pageWidth="1169" pageHeight="827" math="0" shadow="0">
      <root>
        <mxCell id="0" />
        <mxCell id="1" parent="0" />
        <mxCell id="UEzPUAAOIrF-is8g5C7q-74" value="AWS Cloud" style="points=[[0,0],[0.25,0],[0.5,0],[0.75,0],[1,0],[1,0.25],[1,0.5],[1,0.75],[1,1],[0.75,1],[0.5,1],[0.25,1],[0,1],[0,0.75],[0,0.5],[0,0.25]];outlineConnect=0;gradientColor=none;html=1;whiteSpace=wrap;fontSize=12;fontStyle=0;shape=mxgraph.aws4.group;grIcon=mxgraph.aws4.group_aws_cloud_alt;strokeColor=#232F3E;fillColor=none;verticalAlign=top;align=left;spacingLeft=30;fontColor=#232F3E;dashed=0;labelBackgroundColor=#ffffff;container=1;pointerEvents=0;collapsible=0;recursiveResize=0;" parent="1" vertex="1">
          <mxGeometry x="50" y="80" width="780" height="650" as="geometry" />
        </mxCell>
        <mxCell id="ZcSvHSxE6wprm-lA_3pK-1" value="" style="shape=image;html=1;verticalAlign=top;verticalLabelPosition=bottom;labelBackgroundColor=#ffffff;imageAspect=0;aspect=fixed;image=https://cdn0.iconfinder.com/data/icons/social-network-9/50/29-128.png" parent="UEzPUAAOIrF-is8g5C7q-74" vertex="1">
          <mxGeometry x="32" y="60" width="78" height="78" as="geometry" />
        </mxCell>
        <mxCell id="ZcSvHSxE6wprm-lA_3pK-2" value="" style="sketch=0;aspect=fixed;html=1;points=[];align=center;image;fontSize=12;image=img/lib/mscae/Docker.svg;" parent="UEzPUAAOIrF-is8g5C7q-74" vertex="1">
          <mxGeometry x="46" y="170" width="36.59" height="30" as="geometry" />
        </mxCell>
        <mxCell id="ZcSvHSxE6wprm-lA_3pK-3" value="" style="aspect=fixed;html=1;points=[];align=center;image;fontSize=12;image=img/lib/azure2/app_services/App_Service_Domains.svg;" parent="UEzPUAAOIrF-is8g5C7q-74" vertex="1">
          <mxGeometry x="110" y="150" width="40" height="32" as="geometry" />
        </mxCell>
        <mxCell id="ZcSvHSxE6wprm-lA_3pK-4" value="" style="verticalLabelPosition=bottom;html=1;verticalAlign=top;align=center;strokeColor=none;fillColor=#00BEF2;shape=mxgraph.azure.file_2;pointerEvents=1;" parent="UEzPUAAOIrF-is8g5C7q-74" vertex="1">
          <mxGeometry x="2" y="141" width="30" height="50" as="geometry" />
        </mxCell>
        <mxCell id="ZcSvHSxE6wprm-lA_3pK-12" value="" style="edgeStyle=orthogonalEdgeStyle;rounded=0;orthogonalLoop=1;jettySize=auto;html=1;" parent="UEzPUAAOIrF-is8g5C7q-74" source="ZcSvHSxE6wprm-lA_3pK-7" target="ZcSvHSxE6wprm-lA_3pK-10" edge="1">
          <mxGeometry relative="1" as="geometry" />
        </mxCell>
        <mxCell id="ZcSvHSxE6wprm-lA_3pK-7" value="" style="shape=image;html=1;verticalAlign=top;verticalLabelPosition=bottom;labelBackgroundColor=#ffffff;imageAspect=0;aspect=fixed;image=https://cdn4.iconfinder.com/data/icons/humility-icons-MERGE/48x48/apps/control-center2.png" parent="UEzPUAAOIrF-is8g5C7q-74" vertex="1">
          <mxGeometry x="200" y="75" width="48" height="48" as="geometry" />
        </mxCell>
        <mxCell id="ZcSvHSxE6wprm-lA_3pK-30" value="" style="edgeStyle=orthogonalEdgeStyle;rounded=0;orthogonalLoop=1;jettySize=auto;html=1;" parent="UEzPUAAOIrF-is8g5C7q-74" source="ZcSvHSxE6wprm-lA_3pK-10" target="ZcSvHSxE6wprm-lA_3pK-21" edge="1">
          <mxGeometry relative="1" as="geometry" />
        </mxCell>
        <mxCell id="ZcSvHSxE6wprm-lA_3pK-10" value="" style="sketch=0;html=1;aspect=fixed;strokeColor=none;shadow=0;align=center;verticalAlign=top;fillColor=#3B8DF1;shape=mxgraph.gcp2.biomedical_test_tube" parent="UEzPUAAOIrF-is8g5C7q-74" vertex="1">
          <mxGeometry x="320" y="49" width="31" height="100" as="geometry" />
        </mxCell>
        <mxCell id="ZcSvHSxE6wprm-lA_3pK-34" value="" style="edgeStyle=orthogonalEdgeStyle;rounded=0;orthogonalLoop=1;jettySize=auto;html=1;" parent="UEzPUAAOIrF-is8g5C7q-74" source="ZcSvHSxE6wprm-lA_3pK-21" target="ZcSvHSxE6wprm-lA_3pK-32" edge="1">
          <mxGeometry relative="1" as="geometry" />
        </mxCell>
        <mxCell id="ZcSvHSxE6wprm-lA_3pK-21" value="" style="sketch=0;points=[[0,0,0],[0.25,0,0],[0.5,0,0],[0.75,0,0],[1,0,0],[0,1,0],[0.25,1,0],[0.5,1,0],[0.75,1,0],[1,1,0],[0,0.25,0],[0,0.5,0],[0,0.75,0],[1,0.25,0],[1,0.5,0],[1,0.75,0]];outlineConnect=0;fontColor=#232F3E;gradientColor=#F54749;gradientDirection=north;fillColor=#C7131F;strokeColor=#ffffff;dashed=0;verticalLabelPosition=bottom;verticalAlign=top;align=center;html=1;fontSize=12;fontStyle=0;aspect=fixed;shape=mxgraph.aws4.resourceIcon;resIcon=mxgraph.aws4.artifact;" parent="UEzPUAAOIrF-is8g5C7q-74" vertex="1">
          <mxGeometry x="430" y="60" width="78" height="78" as="geometry" />
        </mxCell>
        <mxCell id="ZcSvHSxE6wprm-lA_3pK-11" value="Test" style="text;html=1;align=center;verticalAlign=middle;resizable=0;points=[];autosize=1;strokeColor=none;fillColor=none;" parent="UEzPUAAOIrF-is8g5C7q-74" vertex="1">
          <mxGeometry x="310.5" y="19" width="50" height="30" as="geometry" />
        </mxCell>
        <mxCell id="ZcSvHSxE6wprm-lA_3pK-49" style="edgeStyle=orthogonalEdgeStyle;rounded=0;orthogonalLoop=1;jettySize=auto;html=1;entryX=0.5;entryY=0;entryDx=0;entryDy=0;" parent="UEzPUAAOIrF-is8g5C7q-74" source="ZcSvHSxE6wprm-lA_3pK-32" edge="1">
          <mxGeometry relative="1" as="geometry">
            <mxPoint x="400.5" y="268" as="targetPoint" />
            <Array as="points">
              <mxPoint x="640" y="180" />
              <mxPoint x="401" y="180" />
            </Array>
          </mxGeometry>
        </mxCell>
        <mxCell id="ZcSvHSxE6wprm-lA_3pK-32" value="" style="aspect=fixed;perimeter=ellipsePerimeter;html=1;align=center;shadow=0;dashed=0;fontColor=#4277BB;labelBackgroundColor=#ffffff;fontSize=12;spacingTop=3;image;image=img/lib/ibm/devops/artifact_management.svg;" parent="UEzPUAAOIrF-is8g5C7q-74" vertex="1">
          <mxGeometry x="610" y="69" width="60" height="60" as="geometry" />
        </mxCell>
        <mxCell id="ZcSvHSxE6wprm-lA_3pK-33" value="Artifact Repo" style="text;html=1;align=center;verticalAlign=middle;resizable=0;points=[];autosize=1;strokeColor=none;fillColor=none;" parent="UEzPUAAOIrF-is8g5C7q-74" vertex="1">
          <mxGeometry x="613" y="19" width="90" height="30" as="geometry" />
        </mxCell>
        <mxCell id="ZcSvHSxE6wprm-lA_3pK-48" value="" style="edgeStyle=orthogonalEdgeStyle;rounded=0;orthogonalLoop=1;jettySize=auto;html=1;" parent="UEzPUAAOIrF-is8g5C7q-74" source="ZcSvHSxE6wprm-lA_3pK-37" target="ZcSvHSxE6wprm-lA_3pK-43" edge="1">
          <mxGeometry relative="1" as="geometry">
            <Array as="points">
              <mxPoint x="163" y="309" />
              <mxPoint x="163" y="310" />
            </Array>
          </mxGeometry>
        </mxCell>
        <mxCell id="ZcSvHSxE6wprm-lA_3pK-37" value="" style="shape=image;html=1;verticalAlign=top;verticalLabelPosition=bottom;labelBackgroundColor=#ffffff;imageAspect=0;aspect=fixed;image=https://cdn0.iconfinder.com/data/icons/social-network-9/50/29-128.png" parent="UEzPUAAOIrF-is8g5C7q-74" vertex="1">
          <mxGeometry x="25.3" y="270" width="78" height="78" as="geometry" />
        </mxCell>
        <mxCell id="ZcSvHSxE6wprm-lA_3pK-41" value="" style="verticalLabelPosition=bottom;html=1;verticalAlign=top;align=center;strokeColor=none;fillColor=#00BEF2;shape=mxgraph.azure.file_2;pointerEvents=1;" parent="UEzPUAAOIrF-is8g5C7q-74" vertex="1">
          <mxGeometry x="49.3" y="370" width="30" height="30" as="geometry" />
        </mxCell>
        <mxCell id="ZcSvHSxE6wprm-lA_3pK-43" value="" style="shape=image;html=1;verticalAlign=top;verticalLabelPosition=bottom;labelBackgroundColor=#ffffff;imageAspect=0;aspect=fixed;image=https://cdn3.iconfinder.com/data/icons/travelling-icon-set/800/helm-128.png" parent="UEzPUAAOIrF-is8g5C7q-74" vertex="1">
          <mxGeometry x="360.5" y="265" width="80" height="80" as="geometry" />
        </mxCell>
        <mxCell id="ZcSvHSxE6wprm-lA_3pK-44" value="&lt;div&gt;Helm&lt;/div&gt;&lt;div&gt;&lt;br&gt;&lt;/div&gt;" style="text;html=1;align=center;verticalAlign=middle;resizable=0;points=[];autosize=1;strokeColor=none;fillColor=none;" parent="UEzPUAAOIrF-is8g5C7q-74" vertex="1">
          <mxGeometry x="420" y="250" width="50" height="40" as="geometry" />
        </mxCell>
        <mxCell id="ZcSvHSxE6wprm-lA_3pK-56" value="" style="edgeStyle=orthogonalEdgeStyle;rounded=0;orthogonalLoop=1;jettySize=auto;html=1;" parent="UEzPUAAOIrF-is8g5C7q-74" source="ZcSvHSxE6wprm-lA_3pK-51" target="ZcSvHSxE6wprm-lA_3pK-55" edge="1">
          <mxGeometry relative="1" as="geometry" />
        </mxCell>
        <mxCell id="ZcSvHSxE6wprm-lA_3pK-51" value="" style="shape=image;html=1;verticalAlign=top;verticalLabelPosition=bottom;labelBackgroundColor=#ffffff;imageAspect=0;aspect=fixed;image=https://cdn0.iconfinder.com/data/icons/social-network-9/50/29-128.png" parent="UEzPUAAOIrF-is8g5C7q-74" vertex="1">
          <mxGeometry x="32" y="470" width="78" height="78" as="geometry" />
        </mxCell>
        <mxCell id="ZcSvHSxE6wprm-lA_3pK-52" value="" style="verticalLabelPosition=bottom;html=1;verticalAlign=top;align=center;strokeColor=none;fillColor=#00BEF2;shape=mxgraph.azure.file_2;pointerEvents=1;" parent="UEzPUAAOIrF-is8g5C7q-74" vertex="1">
          <mxGeometry x="56" y="560" width="30" height="30" as="geometry" />
        </mxCell>
        <mxCell id="ZcSvHSxE6wprm-lA_3pK-59" value="" style="rounded=1;whiteSpace=wrap;html=1;" parent="UEzPUAAOIrF-is8g5C7q-74" vertex="1">
          <mxGeometry x="320" y="450" width="230" height="110" as="geometry" />
        </mxCell>
        <mxCell id="ZcSvHSxE6wprm-lA_3pK-55" value="Terraform" style="rounded=0;whiteSpace=wrap;html=1;" parent="UEzPUAAOIrF-is8g5C7q-74" vertex="1">
          <mxGeometry x="351" y="479" width="90" height="60" as="geometry" />
        </mxCell>
        <mxCell id="ZcSvHSxE6wprm-lA_3pK-60" value="Terraform Cloud /Atlantis" style="text;html=1;align=center;verticalAlign=middle;resizable=0;points=[];autosize=1;strokeColor=none;fillColor=none;" parent="UEzPUAAOIrF-is8g5C7q-74" vertex="1">
          <mxGeometry x="340" y="410" width="160" height="30" as="geometry" />
        </mxCell>
        <mxCell id="ZcSvHSxE6wprm-lA_3pK-81" value="Create/Update/Destroy EKS cluster" style="text;html=1;align=center;verticalAlign=middle;resizable=0;points=[];autosize=1;strokeColor=none;fillColor=none;" parent="UEzPUAAOIrF-is8g5C7q-74" vertex="1">
          <mxGeometry x="535" y="470" width="210" height="30" as="geometry" />
        </mxCell>
        <mxCell id="ZcSvHSxE6wprm-lA_3pK-82" value="Create/Update/Destroy K8 components/Platform" style="text;html=1;align=center;verticalAlign=middle;resizable=0;points=[];autosize=1;strokeColor=none;fillColor=none;" parent="UEzPUAAOIrF-is8g5C7q-74" vertex="1">
          <mxGeometry x="425" y="310" width="280" height="30" as="geometry" />
        </mxCell>
        <mxCell id="UEzPUAAOIrF-is8g5C7q-75" value="AWS Cloud" style="points=[[0,0],[0.25,0],[0.5,0],[0.75,0],[1,0],[1,0.25],[1,0.5],[1,0.75],[1,1],[0.75,1],[0.5,1],[0.25,1],[0,1],[0,0.75],[0,0.5],[0,0.25]];outlineConnect=0;gradientColor=none;html=1;whiteSpace=wrap;fontSize=12;fontStyle=0;shape=mxgraph.aws4.group;grIcon=mxgraph.aws4.group_aws_cloud_alt;strokeColor=#232F3E;fillColor=none;verticalAlign=top;align=left;spacingLeft=30;fontColor=#232F3E;dashed=0;labelBackgroundColor=#ffffff;container=1;pointerEvents=0;collapsible=0;recursiveResize=0;" parent="1" vertex="1">
          <mxGeometry x="850" y="80" width="270" height="650" as="geometry" />
        </mxCell>
        <mxCell id="UEzPUAAOIrF-is8g5C7q-108" value="" style="rounded=0;whiteSpace=wrap;html=1;labelBackgroundColor=none;fillColor=none;dashed=1;container=1;pointerEvents=0;collapsible=0;recursiveResize=0;" parent="UEzPUAAOIrF-is8g5C7q-75" vertex="1">
          <mxGeometry x="10" y="100" width="250" height="190" as="geometry" />
        </mxCell>
        <mxCell id="ZcSvHSxE6wprm-lA_3pK-61" value="Amazon EKS" style="sketch=0;outlineConnect=0;fontColor=#232F3E;gradientColor=none;strokeColor=#ffffff;fillColor=#232F3E;dashed=0;verticalLabelPosition=middle;verticalAlign=bottom;align=center;html=1;whiteSpace=wrap;fontSize=10;fontStyle=1;spacing=3;shape=mxgraph.aws4.productIcon;prIcon=mxgraph.aws4.eks;" parent="UEzPUAAOIrF-is8g5C7q-108" vertex="1">
          <mxGeometry x="40" y="70" width="80" height="100" as="geometry" />
        </mxCell>
        <mxCell id="ZcSvHSxE6wprm-lA_3pK-67" value="" style="outlineConnect=0;dashed=0;verticalLabelPosition=bottom;verticalAlign=top;align=center;html=1;shape=mxgraph.aws3.vpc;fillColor=#F58534;gradientColor=none;" parent="UEzPUAAOIrF-is8g5C7q-108" vertex="1">
          <mxGeometry x="160" width="67.5" height="60" as="geometry" />
        </mxCell>
        <mxCell id="ZcSvHSxE6wprm-lA_3pK-68" value="VPC-1" style="text;html=1;align=center;verticalAlign=middle;resizable=0;points=[];autosize=1;strokeColor=none;fillColor=none;" parent="UEzPUAAOIrF-is8g5C7q-108" vertex="1">
          <mxGeometry x="95" y="10" width="60" height="30" as="geometry" />
        </mxCell>
        <mxCell id="ZcSvHSxE6wprm-lA_3pK-57" value="" style="rounded=0;whiteSpace=wrap;html=1;labelBackgroundColor=none;fillColor=none;dashed=1;container=1;pointerEvents=0;collapsible=0;recursiveResize=0;" parent="UEzPUAAOIrF-is8g5C7q-75" vertex="1">
          <mxGeometry x="10" y="370" width="250" height="190" as="geometry" />
        </mxCell>
        <mxCell id="ZcSvHSxE6wprm-lA_3pK-66" value="Amazon EKS" style="sketch=0;outlineConnect=0;fontColor=#232F3E;gradientColor=none;strokeColor=#ffffff;fillColor=#232F3E;dashed=0;verticalLabelPosition=middle;verticalAlign=bottom;align=center;html=1;whiteSpace=wrap;fontSize=10;fontStyle=1;spacing=3;shape=mxgraph.aws4.productIcon;prIcon=mxgraph.aws4.eks;" parent="ZcSvHSxE6wprm-lA_3pK-57" vertex="1">
          <mxGeometry x="50" y="85" width="80" height="100" as="geometry" />
        </mxCell>
        <mxCell id="ZcSvHSxE6wprm-lA_3pK-63" value="Prod and Preprod " style="text;html=1;align=center;verticalAlign=middle;resizable=0;points=[];autosize=1;strokeColor=none;fillColor=none;" parent="ZcSvHSxE6wprm-lA_3pK-57" vertex="1">
          <mxGeometry x="10" y="20" width="120" height="30" as="geometry" />
        </mxCell>
        <mxCell id="ZcSvHSxE6wprm-lA_3pK-70" value="" style="outlineConnect=0;dashed=0;verticalLabelPosition=bottom;verticalAlign=top;align=center;html=1;shape=mxgraph.aws3.vpc;fillColor=#F58534;gradientColor=none;" parent="ZcSvHSxE6wprm-lA_3pK-57" vertex="1">
          <mxGeometry x="167.5" y="10" width="67.5" height="50" as="geometry" />
        </mxCell>
        <mxCell id="ZcSvHSxE6wprm-lA_3pK-72" value="VPC-2" style="text;html=1;align=center;verticalAlign=middle;resizable=0;points=[];autosize=1;strokeColor=none;fillColor=none;" parent="ZcSvHSxE6wprm-lA_3pK-57" vertex="1">
          <mxGeometry x="180" y="60" width="60" height="30" as="geometry" />
        </mxCell>
        <mxCell id="UEzPUAAOIrF-is8g5C7q-88" value="" style="edgeStyle=orthogonalEdgeStyle;rounded=0;orthogonalLoop=1;jettySize=auto;html=1;endArrow=open;endFill=0;strokeWidth=2;" parent="1" edge="1">
          <mxGeometry relative="1" as="geometry">
            <mxPoint x="168" y="179" as="sourcePoint" />
            <mxPoint x="250.00827256153138" y="179" as="targetPoint" />
          </mxGeometry>
        </mxCell>
        <mxCell id="ZcSvHSxE6wprm-lA_3pK-5" value="&#xa;APP&#xa;&#xa;" style="text;html=1;align=center;verticalAlign=middle;resizable=0;points=[];autosize=1;strokeColor=none;fillColor=none;" parent="1" vertex="1">
          <mxGeometry x="145" y="240" width="50" height="60" as="geometry" />
        </mxCell>
        <mxCell id="ZcSvHSxE6wprm-lA_3pK-6" value="Jenkins file" style="text;html=1;align=center;verticalAlign=middle;resizable=0;points=[];autosize=1;strokeColor=none;fillColor=none;" parent="1" vertex="1">
          <mxGeometry x="40" y="275" width="80" height="30" as="geometry" />
        </mxCell>
        <mxCell id="ZcSvHSxE6wprm-lA_3pK-8" value="Build" style="text;html=1;align=center;verticalAlign=middle;resizable=0;points=[];autosize=1;strokeColor=none;fillColor=none;" parent="1" vertex="1">
          <mxGeometry x="235" y="135" width="50" height="30" as="geometry" />
        </mxCell>
        <mxCell id="ZcSvHSxE6wprm-lA_3pK-26" value="" style="editableCssRules=.*;shape=image;verticalLabelPosition=bottom;labelBackgroundColor=#ffffff;verticalAlign=top;aspect=fixed;imageAspect=0;image=data:image/svg+xml,PHN2ZyB4bWxucz0iaHR0cDovL3d3dy53My5vcmcvMjAwMC9zdmciIHhtbG5zOnY9Imh0dHBzOi8vdmVjdGEuaW8vbmFubyIgd2lkdGg9IjIxLjk5OTAwMDU0OTMxNjQwNiIgaGVpZ2h0PSIyMC4zOTM5OTkwOTk3MzE0NDUiIHZpZXdCb3g9IjAgMCAyMS45OTkwMDA1NDkzMTY0MDYgMjAuMzkzOTk5MDk5NzMxNDQ1Ij4mI3hhOwk8c3R5bGUgdHlwZT0idGV4dC9jc3MiPiYjeGE7CS5zdDB7ZmlsbDojNDI4NWY0O2ZpbGwtcnVsZTpldmVub2RkfSYjeGE7CTwvc3R5bGU+JiN4YTsJPHBhdGggY2xhc3M9InN0MCIgZD0iTTUgMHYyLjQ1OEwxLjk5OSA0LjE5N3YxMi4wMUw1IDE3LjkzOHYyLjQ1NmwtNS0yLjg4N1YyLjg4NnptMTIgMGw0Ljk5OSAyLjg4NnYxNC42MjFMMTcgMjAuMzk0di0yLjQ1NmwzLTEuNzMxVjQuMTk3bC0zLTEuNzM5em0tNi4wMTYgNi42NzNsMi45NDctMS42NDYtMi45NDctMS42NDYtMi45NDcgMS42NDZ6bTMuMjY4LTEuMDk2bC0yLjg3MSAxLjY3OHYzLjI4N2wyLjg3MS0xLjY3NnpNNy43NzMgOC44NjZsMi44NzEgMS42NzRWNy4yNTZMNy43NzMgNS41Nzd6bS0uMjEyIDMuODc4bDIuODItMS42NDYtMi44Mi0xLjY0Ni0yLjgyIDEuNjQ2em0zLjEzMi0xLjA5OGwtMi44NzEgMS42Nzh2My4yODdsMi44NzEtMS42NzZ6bS02LjI2NCAzLjI4OUw3LjMgMTYuNjA5di0zLjI4NWwtMi44NzEtMS42Nzl6bTEwLjAyOS0yLjE5MWwyLjgyLTEuNjQ2LTIuODItMS42NDYtMi44MiAxLjY0NnptMy4xMzItMS4wOThsLTIuODcxIDEuNjc4djMuMjg3bDIuODcxLTEuNjc2em0tNi4yNjQgMy4yODlsMi44NzEgMS42NzR2LTMuMjg1bC0yLjg3MS0xLjY3OXoiLz4mI3hhOzwvc3ZnPg==;" parent="1" vertex="1">
          <mxGeometry x="290" y="180" width="20" height="18" as="geometry" />
        </mxCell>
        <mxCell id="ZcSvHSxE6wprm-lA_3pK-31" value="Artifact" style="text;html=1;align=center;verticalAlign=middle;resizable=0;points=[];autosize=1;strokeColor=none;fillColor=none;" parent="1" vertex="1">
          <mxGeometry x="470" y="105" width="60" height="30" as="geometry" />
        </mxCell>
        <mxCell id="ZcSvHSxE6wprm-lA_3pK-42" value="Helmchart &amp;amp; Helmfile" style="text;html=1;align=center;verticalAlign=middle;resizable=0;points=[];autosize=1;strokeColor=none;fillColor=none;" parent="1" vertex="1">
          <mxGeometry x="40" y="485" width="140" height="30" as="geometry" />
        </mxCell>
        <mxCell id="ZcSvHSxE6wprm-lA_3pK-54" value="&lt;div&gt;Terraform &lt;br&gt;&lt;/div&gt;&lt;div&gt;manifests&lt;/div&gt;" style="text;html=1;align=center;verticalAlign=middle;resizable=0;points=[];autosize=1;strokeColor=none;fillColor=none;" parent="1" vertex="1">
          <mxGeometry x="35" y="630" width="70" height="40" as="geometry" />
        </mxCell>
        <mxCell id="ZcSvHSxE6wprm-lA_3pK-77" value="Dev and QA" style="text;html=1;align=center;verticalAlign=middle;resizable=0;points=[];autosize=1;strokeColor=none;fillColor=none;" parent="1" vertex="1">
          <mxGeometry x="855" y="175" width="90" height="30" as="geometry" />
        </mxCell>
        <mxCell id="ZcSvHSxE6wprm-lA_3pK-78" style="edgeStyle=orthogonalEdgeStyle;rounded=0;orthogonalLoop=1;jettySize=auto;html=1;" parent="1" source="ZcSvHSxE6wprm-lA_3pK-59" target="ZcSvHSxE6wprm-lA_3pK-66" edge="1">
          <mxGeometry relative="1" as="geometry" />
        </mxCell>
        <mxCell id="ZcSvHSxE6wprm-lA_3pK-79" style="edgeStyle=orthogonalEdgeStyle;rounded=0;orthogonalLoop=1;jettySize=auto;html=1;" parent="1" source="ZcSvHSxE6wprm-lA_3pK-59" target="ZcSvHSxE6wprm-lA_3pK-61" edge="1">
          <mxGeometry relative="1" as="geometry">
            <Array as="points">
              <mxPoint x="800" y="585" />
              <mxPoint x="800" y="300" />
            </Array>
          </mxGeometry>
        </mxCell>
        <mxCell id="ZcSvHSxE6wprm-lA_3pK-80" style="edgeStyle=orthogonalEdgeStyle;rounded=0;orthogonalLoop=1;jettySize=auto;html=1;" parent="1" source="ZcSvHSxE6wprm-lA_3pK-43" target="ZcSvHSxE6wprm-lA_3pK-61" edge="1">
          <mxGeometry relative="1" as="geometry" />
        </mxCell>
      </root>
    </mxGraphModel>
  </diagram>
</mxfile>
